<?xml version="1.0" encoding="UTF-8" standalone="no"?>
<!-- Created with Inkscape (http://www.inkscape.org/) -->

<svg
   width="242.74191mm"
   height="72.715584mm"
   viewBox="0 0 242.74188 72.715585"
   version="1.1"
   id="svg5"
   xml:space="preserve"
   inkscape:version="1.2.2 (1:1.2.2+202212051552+b0a8486541)"
   sodipodi:docname="drawing.svg"
   inkscape:export-filename="drawing.png"
   inkscape:export-xdpi="600"
   inkscape:export-ydpi="600"
   xmlns:inkscape="http://www.inkscape.org/namespaces/inkscape"
   xmlns:sodipodi="http://sodipodi.sourceforge.net/DTD/sodipodi-0.dtd"
   xmlns:xlink="http://www.w3.org/1999/xlink"
   xmlns="http://www.w3.org/2000/svg"
   xmlns:svg="http://www.w3.org/2000/svg"><sodipodi:namedview
     id="namedview7"
     pagecolor="#000000"
     bordercolor="#999999"
     borderopacity="1"
     inkscape:showpageshadow="0"
     inkscape:pageopacity="0"
     inkscape:pagecheckerboard="0"
     inkscape:deskcolor="#d1d1d1"
     inkscape:document-units="mm"
     showgrid="false"
     inkscape:zoom="0.84096521"
     inkscape:cx="462.56373"
     inkscape:cy="153.98972"
     inkscape:window-width="1920"
     inkscape:window-height="1020"
     inkscape:window-x="0"
     inkscape:window-y="0"
     inkscape:window-maximized="1"
     inkscape:current-layer="layer1" /><defs
     id="defs2"><inkscape:path-effect
       effect="spiro"
       id="path-effect4442"
       is_visible="true"
       lpeversion="1" /><inkscape:path-effect
       effect="spiro"
       id="path-effect4418"
       is_visible="true"
       lpeversion="1" /><marker
       style="overflow:visible"
       id="TriangleStart"
       refX="0"
       refY="0"
       orient="auto-start-reverse"
       inkscape:stockid="TriangleStart"
       markerWidth="5.3244081"
       markerHeight="6.155385"
       viewBox="0 0 5.3244081 6.1553851"
       inkscape:isstock="true"
       inkscape:collect="always"
       preserveAspectRatio="xMidYMid"><path
         transform="scale(0.5)"
         style="fill:context-stroke;fill-rule:evenodd;stroke:context-stroke;stroke-width:1pt"
         d="M 5.77,0 -2.88,5 V -5 Z"
         id="path135" /></marker><inkscape:path-effect
       effect="spiro"
       id="path-effect4352"
       is_visible="true"
       lpeversion="1" /><linearGradient
       id="a"
       x1="374.17001"
       x2="170.64"
       y1="-112.67"
       y2="463"
       gradientUnits="userSpaceOnUse"><stop
         stop-color="#16bbf4"
         offset="0"
         id="stop2022" /><stop
         stop-color="#165ff2"
         offset=".99"
         id="stop2024" /></linearGradient><linearGradient
       id="b"
       x1="488.28"
       x2="474.29001"
       y1="112.58"
       y2="556.15002"
       xlink:href="#a" /><linearGradient
       id="linearGradient206"
       x1="374.17001"
       x2="170.64"
       y1="-112.67"
       y2="463"
       gradientUnits="userSpaceOnUse"
       xlink:href="#a" /></defs><g
     inkscape:label="Layer 1"
     inkscape:groupmode="layer"
     id="layer1"
     transform="translate(-3.2632043,-116.76708)"><path
       style="fill:#ffffff;fill-opacity:1;stroke-width:0.999997"
       d="m 98.599091,170.4018 c -2.62919,-0.57978 -4.647274,-2.39749 -5.491477,-4.94622 -0.395427,-1.19388 -0.398304,-2.79912 -0.0076,-4.36577 1.348773,-5.41134 5.069557,-12.57575 9.112716,-17.54663 0.44272,-0.54432 0.8673,-1.06771 0.94353,-1.16312 0.12407,-0.1554 0.1842,-0.11849 0.57529,0.35256 1.44776,1.74377 3.63323,3.69995 5.58957,5.00311 l 0.93831,0.62503 h -1.53802 c -1.78557,0 -2.4151,0.10804 -3.2812,0.56373 -1.77622,0.93429 -2.76184,2.88513 -2.47599,4.90072 0.0584,0.41052 0.69766,4.29477 1.42096,8.63167 0.72327,4.33688 1.31508,7.93377 1.31508,7.99305 0,0.16928 -6.309279,0.12642 -7.100939,-0.0481 z m 10.311259,-0.0808 c -0.0301,-0.1302 -0.68921,-4.05769 -1.46455,-8.72782 -1.50497,-9.06509 -1.49559,-8.975 -0.99188,-9.52162 0.53447,-0.57996 -0.0643,-0.55487 13.23756,-0.55487 13.2579,0 12.71063,-0.0221 13.21868,0.53875 0.52649,0.5814 0.54648,0.38526 -0.97197,9.53143 -0.77591,4.67359 -1.43542,8.60393 -1.46559,8.73413 l -0.0547,0.23669 h -10.72626 -10.72629 z m 11.51917,-9.53147 c 1.11243,-0.59195 1.07248,-2.26139 -0.067,-2.80214 -1.09886,-0.52145 -2.35841,0.37535 -2.22238,1.5823 0.12641,1.12245 1.29871,1.74703 2.28944,1.21984 z m 13.2534,9.66793 c 0,-0.0634 0.59179,-3.66372 1.31509,-8.00062 0.72327,-4.33688 1.36271,-8.22114 1.42091,-8.63167 0.35124,-2.47651 -1.26571,-4.8373 -3.66166,-5.34607 -0.3066,-0.0652 -1.24273,-0.11849 -2.08029,-0.11849 h -1.52282 l 1.00235,-0.67958 c 1.95495,-1.32545 4.0183,-3.16512 5.28097,-4.70847 0.32104,-0.39242 0.61384,-0.71079 0.65067,-0.70752 0.18265,0.0162 2.69946,3.34356 3.83216,5.06619 3.83281,5.82895 6.89998,13.41949 6.66686,16.49895 -0.12966,1.71105 -0.87655,3.31385 -2.12743,4.56473 -0.86952,0.86952 -1.76974,1.4267 -2.93949,1.81934 -0.83447,0.28012 -0.87117,0.28282 -4.33945,0.32048 -2.48987,0.027 -3.49787,0.005 -3.49787,-0.0774 z m -15.61181,-22.25842 c -2.11709,-0.40081 -5.13005,-1.75395 -7.32153,-3.28815 -2.08673,-1.46085 -4.1856,-3.46086 -5.2364,-4.98975 -2.56824,-3.73675 -1.97883,-6.98341 1.57872,-8.69618 1.70163,-0.81927 1.51821,-0.96083 1.58284,1.22157 0.0409,1.38242 0.11092,2.08972 0.26836,2.7118 1.03382,4.08456 4.20249,7.19419 8.38139,8.22526 0.53643,0.13236 1.17918,0.18195 2.36699,0.18258 1.88342,0.001 2.80745,-0.18047 4.38813,-0.86194 3.1186,-1.34451 5.5082,-4.17956 6.36022,-7.5459 0.15739,-0.62208 0.22745,-1.32938 0.2684,-2.7118 0.0645,-2.1824 -0.11867,-2.04084 1.58283,-1.22157 3.08631,1.48591 3.96547,4.16034 2.39957,7.29973 -1.96649,3.94251 -7.81394,8.32698 -12.70116,9.52345 -1.17657,0.28805 -2.85296,0.35259 -3.91836,0.1509 z m 0.29351,-7.8355 c -0.77547,-0.1401 -1.95481,-0.58602 -2.6908,-1.01738 -1.3272,-0.77786 -2.6988,-2.35384 -3.25523,-3.74034 -0.46993,-1.17091 -0.5331,-1.5649 -0.5875,-3.66464 l -0.0535,-2.05995 1.03764,-0.12425 c 3.5954,-0.43064 10.15691,-0.43064 13.75233,0 l 1.03762,0.12425 -0.0459,2.05995 c -0.0439,1.96554 -0.0609,2.10359 -0.37105,3.0119 -0.42968,1.2585 -0.94578,2.11513 -1.84404,3.06076 -1.42837,1.5037 -3.26588,2.33459 -5.3239,2.40738 -0.61477,0.0218 -1.35982,-0.005 -1.65565,-0.0576 z m -12.76979,-12.07838 c 0,-0.2012 1.11703,-2.24655 1.73306,-3.17332 0.90658,-1.36386 1.57218,-2.18401 2.75542,-3.39515 2.29418,-2.34829 4.6958,-3.89506 7.24118,-4.6637 0.82857,-0.25022 1.12415,-0.28591 2.36699,-0.28591 1.23617,0 1.54286,0.0367 2.36696,0.28265 3.78549,1.13016 7.67455,4.35289 10.30101,8.53607 0.66373,1.05715 1.48207,2.66368 1.39907,2.74668 -0.031,0.0308 -0.19432,-0.0162 -0.36334,-0.103 -0.65262,-0.33747 -2.87731,-1.00867 -4.1916,-1.26459 -2.78933,-0.54317 -4.19539,-0.63738 -9.5121,-0.63738 -3.97904,0 -5.19443,0.0344 -6.51394,0.18472 -2.82062,0.32118 -5.34783,0.90723 -6.93038,1.60711 -0.64475,0.28514 -0.65233,0.28706 -0.65233,0.16567 z"
       id="path1016" /><path
       style="fill:#b5e853;fill-opacity:1;stroke-width:0.999998"
       d="m 125.67305,189.09042 c -0.0775,-0.1586 -0.0986,-0.32304 -0.0966,-0.75402 0.002,-0.40875 -0.002,-0.44334 -0.0576,-0.56069 -0.053,-0.11134 -0.0589,-0.15657 -0.0552,-0.41134 0.003,-0.24155 0.0151,-0.3172 0.0731,-0.48466 0.0635,-0.18341 0.0691,-0.23004 0.0733,-0.61487 0.003,-0.37866 0.0105,-0.4333 0.0692,-0.60287 0.0776,-0.22382 0.12396,-0.61594 0.10719,-0.90816 -0.0163,-0.28499 -0.0258,-0.32388 -0.0784,-0.32442 -0.0662,-6.6e-4 -0.26161,-0.13537 -0.32179,-0.2218 -0.17315,-0.24852 -0.14982,-0.84829 0.0478,-1.22862 0.0895,-0.17214 0.26659,-0.35186 0.42057,-0.42663 0.16495,-0.0801 0.32653,-0.0787 0.6522,0.006 0.41305,0.10727 0.49834,0.0955 1.00971,-0.1396 0.37908,-0.17427 0.65874,-0.25982 1.0613,-0.32473 0.49724,-0.0802 0.77826,-0.0919 1.91918,-0.0803 l 1.12879,0.0115 0.0131,-0.0808 c 0.007,-0.0444 0.0334,-0.2934 0.0585,-0.55329 0.1691,-1.7493 0.30477,-2.31525 0.68731,-2.86636 0.16065,-0.23142 0.52429,-0.52263 0.72289,-0.57886 0.0547,-0.0155 0.0561,-0.0109 0.0544,0.1645 l -0.002,0.1804 0.0862,-0.0987 c 0.0702,-0.0804 0.3436,-0.25441 0.39879,-0.25383 0.008,4e-5 -0.003,0.0396 -0.0239,0.0879 -0.0207,0.0482 -0.051,0.21055 -0.0673,0.3606 -0.0364,0.3317 -0.024,0.35912 0.20717,0.4723 0.11575,0.0567 0.19486,0.0781 0.29207,0.0793 0.14428,0.002 0.27102,0.0615 0.3173,0.15019 0.0585,0.11198 0.0572,0.26756 -0.003,0.38915 -0.0912,0.18348 -0.30737,0.29979 -0.8193,0.44069 -0.0395,0.0107 -0.0449,0.24908 -0.006,0.27354 0.0447,0.0283 0.1157,0.21532 0.15691,0.41328 0.0211,0.10142 0.042,0.34689 0.0464,0.54546 0.007,0.32008 0.002,0.38218 -0.0487,0.54716 -0.0461,0.15151 -0.0608,0.28102 -0.0796,0.69623 -0.0247,0.55053 -0.0638,0.73717 -0.19505,0.92596 -0.0582,0.0836 -0.0619,0.11112 -0.0748,0.53193 -0.0152,0.49646 -0.039,0.59237 -0.21862,0.88309 -0.13568,0.21907 -0.48042,0.54693 -0.78117,0.74213 l -0.25554,0.16582 -0.0147,0.55205 c -0.009,0.35124 -0.0315,0.65601 -0.0608,0.83786 -0.0261,0.16238 -0.0493,0.45243 -0.0536,0.67159 -0.007,0.35968 -0.003,0.39984 0.0589,0.59359 0.11416,0.35673 0.14917,0.42374 0.24223,0.46374 0.0614,0.0263 0.0952,0.064 0.12434,0.13952 0.0769,0.19806 0.0725,0.20228 -0.20809,0.1994 -0.24603,-0.002 -0.24747,-0.002 -0.29939,-0.0774 -0.13775,-0.19763 -0.4262,-0.97818 -0.51028,-1.38072 -0.0232,-0.11127 -0.0371,-0.13745 -0.0619,-0.11725 -0.0588,0.0478 -0.0933,0.27963 -0.11092,0.74421 l -0.0174,0.4607 0.0665,0.0365 c 0.0867,0.0477 0.30901,0.36365 0.30824,0.43837 -4e-5,0.008 -0.14298,0.0122 -0.31752,0.0102 l -0.31734,-0.003 -0.0564,-0.085 c -0.13941,-0.20931 -0.15879,-0.31352 -0.16478,-0.88696 -0.003,-0.38094 -0.0147,-0.54898 -0.0376,-0.5854 -0.0869,-0.13912 -0.14546,-0.51714 -0.17365,-1.12477 -0.01,-0.21394 -0.0221,-0.39314 -0.0271,-0.39823 -0.006,-0.006 -0.11521,0.0121 -0.24488,0.038 -0.3422,0.0685 -0.88278,0.0796 -1.25911,0.0259 -0.2464,-0.0352 -0.64285,-0.12668 -0.91607,-0.21132 -0.0472,-0.0147 -0.0498,-0.003 -0.0535,0.22842 -0.004,0.28932 -0.0166,0.31683 -0.26692,0.606 -0.30265,0.34973 -0.40687,0.64284 -0.35864,1.00932 0.0273,0.2084 0.0849,0.37176 0.22566,0.64088 0.0821,0.15695 0.12381,0.20953 0.19321,0.24334 0.0632,0.0308 0.0999,0.0724 0.12807,0.14494 0.0784,0.20169 0.0796,0.20081 -0.2726,0.1972 l -0.31099,-0.003 0.002,-0.2387 0.002,-0.23872 -0.12458,-0.14218 c -0.23035,-0.26291 -0.4176,-0.7661 -0.45012,-1.20972 -0.008,-0.10617 -0.0211,-0.19314 -0.0298,-0.19322 -0.008,-2.1e-4 -0.0358,0.0359 -0.0604,0.0803 -0.0506,0.091 -0.21508,0.26581 -0.42856,0.45542 -0.13256,0.11782 -0.14668,0.14045 -0.16932,0.27231 -0.0327,0.18722 -0.0342,0.45131 -0.006,0.79108 0.0219,0.25949 0.027,0.27716 0.0952,0.33191 0.04,0.0315 0.0954,0.0912 0.12382,0.13193 l 0.0516,0.0741 -0.31219,-0.003 -0.3122,-0.003 -0.0339,-0.0686 z"
       id="path1079" /><path
       d="m 99.248896,178.67554 c 0.266518,-0.80259 0.174277,-1.6811 -0.25315,-2.41082 -0.64266,-1.11868 -1.934352,-1.69411 -3.195843,-1.42373 -0.71089,-0.79075 -1.789534,-1.14239 -2.829883,-0.92254 -1.040364,0.21987 -1.884513,0.97783 -2.214696,1.9886 -0.828648,0.16993 -1.543827,0.68876 -1.962562,1.42372 -0.649673,1.11687 -0.502207,2.52571 0.364637,3.48385 -0.267509,0.80221 -0.176092,1.68083 0.250843,2.4108 0.643462,1.11906 1.935998,1.69445 3.198163,1.42373 0.561396,0.63217 1.367924,0.99186 2.213389,0.98713 1.293023,7.6e-4 2.438542,-0.83357 2.833515,-2.0648 0.828511,-0.17021 1.5436,-0.68896 1.962562,-1.42372 0.641829,-1.1149 0.493739,-2.51613 -0.366975,-3.47222 z m -4.429102,6.18961 c -0.516112,7.6e-4 -1.016035,-0.18008 -1.412112,-0.51097 l 0.06968,-0.0395 2.345793,-1.35405 c 0.118757,-0.0697 0.192025,-0.19676 0.192766,-0.33445 v -3.30732 l 0.991728,0.57368 c 0.01,0.005 0.0168,0.0146 0.01861,0.0255 v 2.74062 c -0.0023,1.21751 -0.988907,2.20386 -2.20643,2.20643 z m -4.742663,-2.02527 c -0.258824,-0.44692 -0.351746,-0.97079 -0.262448,-1.47946 l 0.06967,0.0418 2.348091,1.35405 c 0.11831,0.0694 0.264929,0.0694 0.383231,0 l 2.868352,-1.65367 v 1.14503 c -5.07e-4,0.012 -0.0061,0.0231 -0.01626,0.0302 l -2.375979,1.37031 c -1.055804,0.60824 -2.404745,0.24659 -3.014672,-0.80825 z m -0.617802,-5.10963 c 0.260624,-0.4498 0.671998,-0.79289 1.161292,-0.9685 v 2.78706 c -0.0015,0.13715 0.07119,0.26441 0.190443,0.33213 l 2.854421,1.64669 -0.991728,0.57368 c -0.01089,0.005 -0.02391,0.005 -0.0348,0 l -2.371323,-1.36799 c -1.053747,-0.61077 -1.41513,-1.95868 -0.808252,-3.01468 z m 8.147538,1.89289 -2.863722,-1.66295 0.989406,-0.57135 c 0.01082,-0.005 0.02391,-0.005 0.0348,0 l 2.371334,1.37031 c 0.740106,0.42707 1.167079,1.24309 1.095998,2.09462 -0.07104,0.85153 -0.627448,1.58546 -1.428128,1.88392 v -2.78707 c -0.0038,-0.13675 -0.08007,-0.26119 -0.199733,-0.32748 z m 0.987083,-1.48412 -0.06967,-0.0418 -2.343464,-1.36567 c -0.119029,-0.0698 -0.266518,-0.0698 -0.385554,0 l -2.866029,1.65366 v -1.14502 c -7.56e-4,-0.0118 0.0038,-0.0235 0.01399,-0.0302 l 2.371326,-1.36798 c 0.74193,-0.42742 1.664029,-0.38753 2.366273,0.10235 0.702251,0.48988 1.058097,1.3415 0.91318,2.18537 z m -6.205881,2.02992 -0.991721,-0.57135 c -0.01006,-0.007 -0.01679,-0.0163 -0.01861,-0.0278 v -2.73365 c 7.57e-4,-0.85605 0.496814,-1.63437 1.272098,-1.99739 0.775269,-0.36304 1.690507,-0.24538 2.348759,0.30192 l -0.06967,0.0395 -2.345771,1.35405 c -0.118772,0.0697 -0.192025,0.19676 -0.192781,0.33446 z m 0.538838,-1.16128 1.277408,-0.73626 1.279723,0.73626 v 1.4725 l -1.275078,0.73625 -1.279731,-0.73625 z"
       fill="#000000"
       id="path1566"
       style="fill:#b5e853;fill-opacity:1;stroke-width:0.264584" /><path
       style="fill:#b5e853;fill-opacity:1;stroke-width:0.999994"
       d="m 145.61912,184.9974 c -0.71758,-0.41581 -1.25903,-0.90239 -1.6118,-1.44849 -0.0531,-0.082 -0.11292,-0.18717 -0.13313,-0.23357 -0.0365,-0.0836 -0.0351,-0.0862 0.15653,-0.30025 0.33787,-0.3774 0.586,-0.8237 0.72608,-1.30598 l 0.0697,-0.23988 0.11428,0.4322 c 0.11247,0.42538 0.11546,0.43293 0.19224,0.47755 0.0492,0.0285 0.10667,0.0378 0.15562,0.0248 0.049,-0.0128 0.0944,-0.0494 0.123,-0.0985 l 0.0453,-0.0779 -0.19883,-0.75198 -0.19883,-0.75197 0.0775,-0.037 c 0.10773,-0.0513 0.32892,-0.24206 0.40258,-0.34717 0.0337,-0.0481 0.0676,-0.0893 0.0751,-0.0912 0.0304,-0.008 0.51777,0.4439 0.66266,0.61461 0.79285,0.93408 0.90282,1.91529 0.36415,3.24894 -0.12062,0.29863 -0.5578,1.09219 -0.60918,1.10578 -0.0125,0.002 -0.19852,-0.0956 -0.41313,-0.22001 z m -3.80277,-1.34235 c -0.64442,0.0749 -1.38959,0.0812 -1.40793,0.0119 -0.002,-0.0111 -0.007,-0.18099 -0.009,-0.37765 -0.009,-0.86973 0.15595,-1.63956 0.47928,-2.23216 l 0.14547,-0.26665 0.17719,0.045 c 0.46893,0.11928 0.99481,0.12472 1.49453,0.0155 0.18594,-0.0407 0.33128,-0.0628 0.32296,-0.0492 -0.008,0.0136 -0.13494,0.14337 -0.28137,0.28844 -0.14642,0.14503 -0.28003,0.29159 -0.29687,0.32567 -0.0686,0.13842 0.0806,0.32221 0.22928,0.28291 0.0378,-0.0104 0.29164,-0.24143 0.6074,-0.55391 l 0.54237,-0.53673 0.1574,0.0846 c 0.0865,0.0466 0.23964,0.0995 0.34014,0.11776 0.10057,0.0183 0.18571,0.0444 0.18934,0.0581 0.015,0.0564 -0.0991,0.56265 -0.18558,0.82359 -0.12444,0.3755 -0.4278,0.88909 -0.6574,1.113 -0.18236,0.17781 -0.44848,0.36913 -0.6907,0.49657 -0.14906,0.0783 -0.98269,0.33316 -1.15635,0.35334 z m 6.08601,-1.63258 c -0.1226,0.0116 -0.29624,0.0181 -0.38588,0.0144 l -0.16299,-0.007 -0.0861,-0.25565 c -0.16204,-0.481 -0.37648,-0.8512 -0.71588,-1.23589 -0.11066,-0.12541 -0.19937,-0.23114 -0.19716,-0.23496 0.002,-0.002 0.18009,0.042 0.39523,0.10171 0.22778,0.0632 0.42062,0.1013 0.46166,0.0911 0.15422,-0.0385 0.19584,-0.27011 0.0647,-0.36059 -0.0318,-0.0219 -0.37662,-0.12582 -0.76661,-0.23105 -0.39,-0.10525 -0.71084,-0.19962 -0.71296,-0.20974 -0.002,-0.0104 -0.007,-0.0902 -0.0105,-0.17801 -0.004,-0.10119 -0.0301,-0.22816 -0.0713,-0.34689 l -0.0653,-0.18728 0.1643,-0.0605 c 0.24432,-0.0899 0.71733,-0.20965 0.9247,-0.2341 0.46311,-0.0546 0.94092,-5.1e-4 1.30549,0.1477 0.58673,0.2385 1.1843,0.76245 1.63978,1.43777 0.19938,0.29559 0.48118,0.814 0.46117,0.84839 -0.0269,0.0463 -0.5798,0.3638 -0.86517,0.49699 -0.36438,0.17005 -1.05752,0.37283 -1.37754,0.40305 z m -3.36751,-1.60531 c -0.25816,-0.0155 -0.43368,-0.0946 -0.59698,-0.26875 -0.11604,-0.12382 -0.132,-0.15416 -0.18356,-0.34913 -0.0516,-0.19501 -0.0527,-0.22921 -0.0129,-0.39439 0.0485,-0.20141 0.10713,-0.29838 0.27041,-0.4468 0.0941,-0.0855 0.14275,-0.10916 0.32407,-0.1576 0.19538,-0.0521 0.22862,-0.0534 0.39409,-0.0135 0.31342,0.0755 0.52155,0.2797 0.60537,0.59429 0.086,0.32382 -0.0119,0.63367 -0.26739,0.84353 -0.1435,0.11793 -0.37599,0.20184 -0.53305,0.19237 z m -2.09282,0.0643 c -0.0219,7.1e-4 -0.12716,0.0111 -0.23412,0.0215 -0.25308,0.0245 -0.60956,-4.7e-4 -0.84596,-0.0593 -0.86009,-0.21421 -1.66285,-0.94166 -2.27105,-2.05801 -0.0842,-0.15473 -0.15538,-0.28926 -0.15795,-0.29899 -0.0154,-0.0583 0.68166,-0.4514 1.10632,-0.62401 0.51996,-0.21134 1.115,-0.33507 1.53366,-0.31883 l 0.16293,0.007 0.0861,0.25565 c 0.16331,0.48492 0.40623,0.90184 0.73225,1.25701 0.10276,0.11191 0.18458,0.20695 0.18189,0.21117 -0.002,0.004 -0.18096,-0.0407 -0.39614,-0.0997 -0.2248,-0.0618 -0.42127,-0.10003 -0.46181,-0.0901 -0.14004,0.0347 -0.19203,0.23414 -0.0895,0.34429 0.0204,0.0219 0.37011,0.13009 0.77709,0.24041 0.57684,0.15635 0.7389,0.21027 0.73518,0.24461 -0.0142,0.13077 0.0152,0.32969 0.0732,0.49614 l 0.0655,0.18791 -0.16429,0.0605 c -0.16052,0.059 -0.75467,0.21848 -0.83335,0.22384 z m 5.35276,-2.15396 c -0.48541,-0.10731 -1.04709,-0.0992 -1.50419,0.0216 -0.14509,0.0384 -0.23333,0.052 -0.22256,0.0343 0.009,-0.0161 0.13767,-0.14764 0.28416,-0.29246 0.14649,-0.1448 0.28008,-0.29141 0.29685,-0.32579 0.0681,-0.13959 -0.0808,-0.32277 -0.22991,-0.28333 -0.0503,0.0133 -0.77437,0.70213 -1.10955,1.05557 -0.0285,0.0301 -0.0661,0.021 -0.19496,-0.0486 -0.0878,-0.0472 -0.24182,-0.10077 -0.34233,-0.11895 -0.10056,-0.0183 -0.18571,-0.0443 -0.18933,-0.058 -0.015,-0.0564 0.099,-0.56197 0.18341,-0.81435 0.21374,-0.63864 0.59524,-1.15307 1.08305,-1.46043 0.33797,-0.21296 0.4426,-0.25522 0.98347,-0.39728 0.42322,-0.11075 0.56997,-0.13921 0.82161,-0.15719 0.32301,-0.0231 0.95754,-0.018 1.00223,0.008 0.0369,0.0215 0.0432,0.70124 0.009,1.03416 -0.0633,0.6313 -0.24516,1.25118 -0.484,1.64935 l -0.12656,0.21102 z m -4.58086,0.39065 c -1.14892,-1.01358 -1.38433,-2.151 -0.75929,-3.66849 0.11864,-0.28807 0.55433,-1.07383 0.60247,-1.08656 0.0494,-0.0131 0.81742,0.45723 1.06409,0.65155 0.50685,0.39929 0.93773,0.89182 1.09395,1.25052 0.0365,0.0836 0.0351,0.0863 -0.15628,0.30115 -0.34219,0.38433 -0.58628,0.82292 -0.72632,1.30508 l -0.0697,0.2399 -0.11427,-0.43221 c -0.11248,-0.42539 -0.11546,-0.43293 -0.19225,-0.47756 -0.0492,-0.0286 -0.10666,-0.0378 -0.1556,-0.0249 -0.049,0.0128 -0.0944,0.0493 -0.123,0.0985 l -0.0453,0.0779 0.19883,0.75197 0.19883,0.75198 -0.0775,0.0369 c -0.10772,0.0513 -0.32892,0.24206 -0.40259,0.34717 -0.0338,0.0481 -0.0676,0.0893 -0.0751,0.0912 -0.007,0.002 -0.12494,-0.0944 -0.2608,-0.21427 z"
       id="path1866" /><g
       id="g2273"
       transform="matrix(0.75482859,0,0,0.75482859,51.022396,42.221088)"
       style="stroke-width:1.3248"><g
         id="g2262"
         style="stroke-width:1.3248"><path
           d="m 78.560533,190.93165 7.797946,-0.11294 a 0.80011966,0.80011966 0 0 0 0.788453,-0.81164 l -0.131059,-9.04868 a 0.80011966,0.80011966 0 0 0 -0.811604,-0.78846 l -12.466958,0.18057 a 0.80011966,0.80011966 0 0 0 -0.78845,0.81161 l 0.131056,9.0487 a 0.80011966,0.80011966 0 0 0 0.811611,0.78845 l 1.120051,-0.0162 a 0.26670655,0.26670655 0 0 1 0.270328,0.26303 l 0.03277,2.26278 a 0.26670655,0.26670655 0 0 0 0.272773,0.2624 0.26217255,0.26217255 0 0 0 0.185537,-0.0813 l 2.601875,-2.67835 a 0.26670655,0.26670655 0 0 1 0.185824,-0.08 z"
           fill="url(#linearGradient206)"
           style="isolation:isolate;fill:#b5e853;fill-opacity:1;stroke-width:0.846731"
           id="path2031" /><g
           fill="#ffffff"
           id="g2043"
           style="fill:#000000;fill-opacity:1;stroke-width:31.7477"
           transform="matrix(0.02666785,-3.8626988e-4,3.8626988e-4,0.02666785,72.937247,180.36212)"><path
             d="m 160.43,213 c -32.24,-20 -38.9,-71.83 -10.42,-97.83 18.42,-7.6 32.4,12.85 36.62,28.25 10.32,17.45 12.59,41 -3.16,56.08 A 42.81,42.81 0 0 1 160.43,213 Z"
             style="isolation:isolate;fill:#000000;fill-opacity:1;stroke-width:7.61742"
             id="path2033" /><path
             d="m 348.22,213.86 c -21.73,-15.31 -45.37,-29.75 -71.77,-35.15 -33.1,-4.41 -70.73,5.36 -91.7,32.87 -14.83,14.32 -18.34,36.94 -5.49,53.76 8.52,19.48 5.59,45.78 28.23,56.94 16,15.83 40,1.27 56.32,14.21 a 7.6,7.6 0 0 0 5.59,-5.05 c -4.25,-31.33 29.21,-16.95 45.66,-14.61 19.77,-11.71 25.43,-36.14 34.75,-55.58 12.55,-13.83 15,-35.25 -1.59,-47.39 z"
             style="isolation:isolate;fill:#000000;fill-opacity:1;stroke-width:7.61742"
             id="path2035" /><path
             d="m 367,118.1 c -21.87,2.52 -29.89,28.17 -40.34,44.42 -10.67,20.94 12.26,38.77 28.48,47.89 a 19.63,19.63 0 0 0 13,-1.07 C 387,199.22 395,175.91 395.48,155.55 395.72,138.77 387.18,116.62 367,118.1 Z"
             style="isolation:isolate;fill:#000000;fill-opacity:1;stroke-width:7.61742"
             id="path2037" /><path
             d="m 218.7,176 c -24,-14.47 -25.38,-45.76 -27.32,-70.65 -0.38,-24 35.23,-45.5 49.43,-20.14 9.8,20.9 21.47,45.47 12.47,68.66 -5.68,13.77 -20.93,19.73 -34.58,22.13 z"
             style="isolation:isolate;fill:#000000;fill-opacity:1;stroke-width:7.61742"
             id="path2039" /><path
             d="m 306.18,175.87 c -28.48,0.84 -43.29,-32.4 -35.93,-56.83 0.17,-19.58 7.31,-53.56 33.53,-48.18 28.29,10.94 34.3,49.46 20.82,74.07 -6.77,10 -6.2,25.11 -18.42,30.94 z"
             style="isolation:isolate;fill:#000000;fill-opacity:1;stroke-width:7.61742"
             id="path2041" /></g></g><path
         d="m 89.909174,186.13542 -2.15103,0.0311 a 0.26670655,0.26670655 0 0 0 -0.262802,0.27057 l 0.0516,3.56416 a 1.2001795,1.2001795 0 0 1 -1.182672,1.21744 l -4.938624,0.0715 a 0.26670655,0.26670655 0 0 0 -0.262796,0.27056 l 0.01817,1.25338 a 0.53341311,0.53341311 0 0 0 0.539775,0.52562 l 5.186098,-0.075 a 0.17735986,0.17735986 0 0 1 0.126119,0.0502 l 1.780932,1.7277 a 0.17735986,0.17735986 0 0 0 0.30087,-0.1297 l -0.0218,-1.50488 a 0.17735986,0.17735986 0 0 1 0.17477,-0.17989 l 0.74404,-0.0109 a 0.53341311,0.53341311 0 0 0 0.52568,-0.54105 l -0.0871,-6.01652 a 0.53341311,0.53341311 0 0 0 -0.54107,-0.52429 z"
         fill="url(#b)"
         style="isolation:isolate;fill:#b5e853;fill-opacity:1;stroke-width:0.846731"
         id="path2047" /></g><g
       id="g4503"
       transform="translate(0,0.05195757)"><path
         style="fill:#ffffff;fill-opacity:1;stroke-width:0.999996"
         d="m 3.6922666,158.47663 c -0.449981,-0.3006 -0.428824,-0.0456 -0.428931,-5.1682 -9.6e-5,-4.5479 0.0012,-4.59646 0.13015,-4.82589 0.247106,-0.43965 0.238988,-0.43822 2.510257,-0.43822 2.243469,0 2.289896,0.007 2.524367,0.39175 0.117556,0.19281 0.121419,0.34701 0.121641,4.86486 2.18e-4,4.40021 -0.0063,4.67781 -0.113412,4.87768 -0.22901,0.42699 -0.299431,0.43922 -2.535107,0.43922 -1.973282,0 -2.000207,-0.001 -2.208971,-0.14114 z m 8.8572724,0.0195 c -0.109311,-0.0667 -0.249262,-0.19829 -0.310985,-0.29248 -0.106745,-0.16298 -0.112216,-0.57412 -0.112216,-8.41786 0,-7.84374 0.0053,-8.25496 0.112216,-8.41788 0.06172,-0.0942 0.201666,-0.2258 0.310985,-0.29248 0.186067,-0.11341 0.325895,-0.12123 2.18907,-0.12137 2.229311,-1.4e-4 2.30229,0.0133 2.547966,0.43503 0.125461,0.21592 0.126493,0.28491 0.126493,8.39662 0,8.11171 -10e-4,8.18072 -0.126493,8.39661 -0.245676,0.42275 -0.318655,0.43521 -2.547966,0.43505 -1.863175,-1e-4 -2.003003,-0.007 -2.18907,-0.12137 z m 8.877378,0.0133 c -0.118573,-0.0597 -0.272504,-0.2067 -0.342086,-0.32644 -0.124974,-0.21509 -0.126493,-0.29478 -0.126493,-6.62401 0,-6.04969 0.0063,-6.4177 0.111863,-6.61118 0.06153,-0.11252 0.201469,-0.25952 0.310984,-0.32631 0.186706,-0.11385 0.325148,-0.12137 2.220529,-0.12137 1.894136,0 2.033921,0.007 2.220169,0.12122 0.109312,0.0667 0.24926,0.19826 0.310985,0.29248 0.106362,0.16223 0.112231,0.51003 0.112231,6.64525 0,6.1352 -0.0059,6.48293 -0.112231,6.64523 -0.06172,0.0942 -0.201667,0.22583 -0.310985,0.29248 -0.186067,0.11341 -0.325893,0.12123 -2.189071,0.12137 -1.771367,1.1e-4 -2.01402,-0.0118 -2.205881,-0.10869 z m 8.83371,-0.006 c -0.116553,-0.0624 -0.263057,-0.20902 -0.325563,-0.32557 -0.108589,-0.20246 -0.113633,-0.61661 -0.113412,-9.29365 2.47e-4,-8.89208 0.0028,-9.08591 0.121435,-9.28051 0.259965,-0.42635 0.241478,-0.42321 2.487848,-0.42321 1.912498,0 2.035803,0.007 2.234835,0.12433 0.11586,0.0684 0.262802,0.22191 0.326534,0.3411 0.111509,0.20856 0.115874,0.55656 0.115786,9.23629 -6.1e-5,8.46288 -0.0068,9.03288 -0.108855,9.23598 -0.05982,0.11916 -0.203851,0.27999 -0.320087,0.35765 -0.208762,0.13952 -0.235688,0.14114 -2.208968,0.14114 -1.815905,0 -2.016909,-0.009 -2.209544,-0.11371 z M 5.1291536,142.57845 c -1.255575,-0.40347 -2.046139,-1.69645 -1.81251,-2.96439 0.161511,-0.87653 0.683848,-1.55469 1.501524,-1.94947 0.440815,-0.21281 0.500694,-0.22517 1.08845,-0.22486 0.545078,3.3e-4 0.666331,0.0211 0.980794,0.16816 l 0.358823,0.16777 2.502245,-1.86909 c 2.0178324,-1.50727 2.5002994,-1.89502 2.4922034,-2.00297 -0.0056,-0.0737 -0.04458,-0.33105 -0.08682,-0.57207 -0.189566,-1.08185 0.453933,-2.27888 1.476846,-2.7472 1.330468,-0.60909 2.844859,-0.0849 3.482616,1.20554 0.200613,0.40592 0.234283,0.53821 0.256794,1.00906 l 0.02591,0.54192 1.93664,0.94857 1.936641,0.94857 0.1534,-0.20546 c 0.950624,-1.27321 2.616305,-1.53646 3.800282,-0.60057 l 0.31489,0.24891 2.188414,-1.29978 c 2.165312,-1.28607 2.188087,-1.30172 2.157317,-1.48182 -0.01718,-0.10014 -0.0311,-0.44947 -0.0311,-0.77633 0,-0.56187 0.01268,-0.62015 0.234228,-1.06804 0.280353,-0.567 0.697095,-0.97254 1.289601,-1.25487 0.376577,-0.17943 0.451166,-0.1926 1.08845,-0.19192 0.650964,7.2e-4 0.705298,0.0118 1.119547,0.21268 1.053312,0.5127 1.669484,1.66494 1.480456,2.76851 -0.192694,1.12492 -1.016366,1.98608 -2.118503,2.21488 -0.553715,0.11489 -0.980466,0.0521 -1.729253,-0.25472 -0.18609,-0.0761 -0.243824,-0.0462 -2.548528,1.32599 l -2.358125,1.40403 -0.06955,0.48672 c -0.117688,0.82365 -0.464037,1.43334 -1.068776,1.88137 -0.742768,0.5503 -1.81029,0.65963 -2.641713,0.27057 -0.677596,-0.3171 -1.236645,-0.92911 -1.42034,-1.55492 l -0.0771,-0.2627 -2.206223,-1.09008 c -1.213423,-0.59953 -2.216739,-1.09005 -2.229592,-1.09005 -0.01298,0 -0.160385,0.0985 -0.327861,0.21874 -0.49209,0.35354 -0.934316,0.47863 -1.592807,0.45055 -0.399614,-0.0167 -0.645501,-0.0624 -0.859402,-0.15835 l -0.299632,-0.1345 -2.551094,1.9045 -2.5510964,1.90452 0.05185,0.22409 c 0.02851,0.12329 0.05185,0.49 0.05185,0.81499 0,0.53411 -0.01868,0.62969 -0.194412,0.99516 -0.354811,0.73782 -0.882047,1.20137 -1.628766,1.432 -0.491797,0.15189 -1.105756,0.15429 -1.566566,0.006 z"
         id="path906" /><text
         xml:space="preserve"
         style="font-size:12.7px;line-height:1.25;font-family:'Universalis ADF Std';-inkscape-font-specification:'Universalis ADF Std, Normal';text-align:center;letter-spacing:0px;word-spacing:0px;writing-mode:lr-tb;text-anchor:middle;stroke-width:0.264583"
         x="19.343779"
         y="177.55614"
         id="text3966"><tspan
           sodipodi:role="line"
           id="tspan3964"
           style="font-style:normal;font-variant:normal;font-weight:normal;font-stretch:normal;font-size:12.7px;font-family:monospace;-inkscape-font-specification:monospace;fill:#ffffff;stroke-width:0.264583"
           x="19.343779"
           y="177.55614">data</tspan></text></g><g
       id="g4508"
       transform="translate(17.423544,-7.2527477)"><path
         style="fill:#ffffff;fill-opacity:1;stroke-width:0.999999"
         d="m 201.66189,163.8133 c -0.38929,-0.0962 -0.61363,-0.2257 -0.91762,-0.5297 -0.3333,-0.3333 -0.47749,-0.61619 -0.56035,-1.09937 -0.0839,-0.48958 0.0259,-0.9854 0.31469,-1.42051 0.22933,-0.34548 0.45712,-0.53279 0.90089,-0.74077 l 0.3178,-0.14895 6.70455,-0.0162 c 4.68014,-0.0114 6.81144,0.002 7.05854,0.0445 0.69603,0.11944 1.22134,0.51768 1.5174,1.15034 0.40824,0.87238 0.10716,1.94615 -0.69418,2.47576 -0.57476,0.37985 -0.22113,0.36332 -7.65791,0.35809 -5.12404,-0.004 -6.77214,-0.0209 -6.98381,-0.0732 z m -0.0259,-6.937 c -1.33235,-0.35807 -1.90653,-1.92572 -1.12279,-3.0655 0.21185,-0.30808 0.6535,-0.65345 1.00602,-0.7867 0.16372,-0.0619 2.34015,-0.0777 12.55439,-0.0909 7.72534,-0.0101 12.48635,0.004 12.70325,0.0373 0.44333,0.0682 0.79733,0.2449 1.12,0.55917 0.30988,0.30182 0.48982,0.6577 0.57041,1.12812 0.12221,0.71346 -0.2268,1.50966 -0.84659,1.93134 -0.59446,0.40446 0.41193,0.37634 -13.32323,0.37228 -10.68801,-0.003 -12.39948,-0.0146 -12.66146,-0.085 z m 0.11513,-6.89697 c -0.48929,-0.097 -1.00114,-0.44704 -1.27296,-0.87063 -0.59655,-0.92966 -0.33133,-2.18346 0.58644,-2.7724 0.56642,-0.36347 -0.11586,-0.34247 11.09516,-0.34152 8.26306,7.1e-4 10.22853,0.0146 10.48279,0.0745 0.60957,0.14348 1.09122,0.54333 1.36958,1.13698 0.12394,0.26433 0.14601,0.38696 0.14601,0.81125 0,0.45291 -0.017,0.53452 -0.18178,0.86909 -0.22113,0.44917 -0.61092,0.81791 -1.05377,0.99684 l -0.31592,0.12765 -10.30617,0.008 c -5.66839,0.005 -10.41562,-0.0135 -10.54938,-0.04 z m 0.0449,-6.92227 c -0.75942,-0.12979 -1.39132,-0.7391 -1.58642,-1.52971 -0.0774,-0.31363 -0.0813,-0.42816 -0.0256,-0.75266 0.0829,-0.48344 0.22705,-0.76607 0.56107,-1.10009 0.30813,-0.30814 0.58029,-0.45803 0.98889,-0.54463 0.41794,-0.0886 24.76022,-0.0886 25.17816,0 0.4086,0.0866 0.68076,0.23649 0.98889,0.54463 0.33402,0.33402 0.47818,0.61665 0.56107,1.10009 0.0839,0.48959 -0.0259,0.98541 -0.31469,1.42052 -0.22932,0.34547 -0.45711,0.53278 -0.90088,0.74076 l -0.3178,0.14895 -12.43944,0.007 c -6.84169,0.005 -12.55363,-0.0117 -12.69319,-0.0356 z"
         id="path1018" /><text
         xml:space="preserve"
         style="font-size:12.7px;line-height:1.25;font-family:'Universalis ADF Std';-inkscape-font-specification:'Universalis ADF Std, Normal';text-align:center;letter-spacing:0px;word-spacing:0px;writing-mode:lr-tb;text-anchor:middle;stroke-width:0.264583"
         x="214.53592"
         y="183.87054"
         id="text3966-5"><tspan
           sodipodi:role="line"
           id="tspan3964-3"
           style="font-style:normal;font-variant:normal;font-weight:normal;font-stretch:normal;font-size:12.7px;font-family:monospace;-inkscape-font-specification:monospace;fill:#ffffff;stroke-width:0.264583"
           x="214.53592"
           y="183.87054">text</tspan></text></g><path
       style="fill:none;stroke:#ffffff;stroke-width:1.865;stroke-linecap:butt;stroke-linejoin:miter;stroke-dasharray:none;stroke-opacity:1;marker-end:url(#TriangleStart)"
       d="m 166.1433,169.45468 c 1.24341,2.89524 3.2911,5.44015 5.85313,7.27441 2.56203,1.83426 5.63105,2.9526 8.77254,3.19668 3.14149,0.24407 6.34641,-0.38681 9.16102,-1.80333 2.8146,-1.41652 5.23079,-3.61461 6.90647,-6.28306 0.14506,-0.231 0.28467,-0.4654 0.4187,-0.70297"
       id="path4350"
       inkscape:path-effect="#path-effect4352"
       inkscape:original-d="m 166.1433,169.45468 c 12.0218,50.64835 22.16309,-6.07266 30.69316,2.3847 8.53012,8.45733 0.2795,-0.46865 0.4187,-0.70297"
       sodipodi:nodetypes="ccc" /><path
       style="fill:none;stroke:#ffffff;stroke-width:1.865;stroke-linecap:butt;stroke-linejoin:miter;stroke-dasharray:none;stroke-opacity:1;marker-end:url(#TriangleStart)"
       d="m 49.231164,138.43926 c 1.193311,-2.96479 3.19461,-5.59977 5.730443,-7.54491 2.535834,-1.94513 5.599429,-3.19521 8.77218,-3.57944 3.172752,-0.38423 6.446187,0.0984 9.373028,1.382 2.926841,1.28358 5.499272,3.36467 7.365799,5.95891 0.159301,0.22141 0.313558,0.44645 0.46261,0.67488"
       id="path4438"
       inkscape:path-effect="#path-effect4442"
       inkscape:original-d="m 49.231164,138.43926 c 7.9106,-9.03971 23.26492,5.19786 31.24145,-3.78344 7.97658,-8.98129 0.30907,0.44971 0.46261,0.67488"
       sodipodi:nodetypes="ccc" /></g></svg>
